<svg width="300" height="100" viewBox="0 0 300 100" fill="none" xmlns="http://www.w3.org/2000/svg">
<rect x="25" y="13" width="250" height="75" rx="16" fill="#009289"/>
<path d="M45.9723 57V42.4545H51.0575C52.0708 42.4545 52.9065 42.6297 53.5646 42.9801C54.2228 43.3258 54.7128 43.7921 55.0348 44.3793C55.3568 44.9616 55.5178 45.608 55.5178 46.3182C55.5178 46.9432 55.4065 47.4593 55.1839 47.8665C54.9661 48.2737 54.6773 48.5956 54.3175 48.8324C53.9624 49.0691 53.5765 49.2443 53.1598 49.358V49.5C53.6049 49.5284 54.0523 49.6847 54.5021 49.9688C54.9519 50.2528 55.3284 50.66 55.6314 51.1903C55.9344 51.7206 56.0859 52.3693 56.0859 53.1364C56.0859 53.8655 55.9202 54.5213 55.5888 55.1037C55.2573 55.6861 54.7341 56.1477 54.0192 56.4886C53.3042 56.8295 52.3738 57 51.228 57H45.9723ZM47.7337 55.4375H51.228C52.3786 55.4375 53.1953 55.215 53.6783 54.7699C54.166 54.3201 54.4098 53.7756 54.4098 53.1364C54.4098 52.6439 54.2843 52.1894 54.0334 51.7727C53.7824 51.3513 53.425 51.0152 52.9609 50.7642C52.4969 50.5085 51.9477 50.3807 51.3132 50.3807H47.7337V55.4375ZM47.7337 48.8466H51.0007C51.531 48.8466 52.0092 48.7424 52.4354 48.5341C52.8662 48.3258 53.2071 48.0322 53.4581 47.6534C53.7138 47.2746 53.8416 46.8295 53.8416 46.3182C53.8416 45.679 53.6191 45.1368 53.174 44.6918C52.7289 44.242 52.0234 44.017 51.0575 44.017H47.7337V48.8466ZM65.6278 52.5398V46.0909H67.304V57H65.6278V55.1534H65.5142C65.2585 55.7074 64.8608 56.1785 64.321 56.5668C63.7813 56.9503 63.0994 57.142 62.2756 57.142C61.5938 57.142 60.9877 56.9929 60.4574 56.6946C59.9271 56.3916 59.5104 55.937 59.2074 55.331C58.9044 54.7202 58.7528 53.9508 58.7528 53.0227V46.0909H60.429V52.9091C60.429 53.7045 60.6515 54.339 61.0966 54.8125C61.5464 55.286 62.1193 55.5227 62.8153 55.5227C63.232 55.5227 63.6558 55.4162 64.0866 55.2031C64.5223 54.9901 64.8868 54.6634 65.1804 54.223C65.4787 53.7827 65.6278 53.2216 65.6278 52.5398ZM70.3739 57V46.0909H72.0501V57H70.3739ZM71.2262 44.2727C70.8995 44.2727 70.6178 44.1615 70.381 43.9389C70.149 43.7164 70.033 43.4489 70.033 43.1364C70.033 42.8239 70.149 42.5563 70.381 42.3338C70.6178 42.1113 70.8995 42 71.2262 42C71.5529 42 71.8323 42.1113 72.0643 42.3338C72.301 42.5563 72.4194 42.8239 72.4194 43.1364C72.4194 43.4489 72.301 43.7164 72.0643 43.9389C71.8323 44.1615 71.5529 44.2727 71.2262 44.2727ZM76.7962 42.4545V57H75.12V42.4545H76.7962ZM83.9854 57.2273C83.0763 57.2273 82.2738 56.9976 81.5778 56.5384C80.8817 56.0743 80.3372 55.4209 79.9442 54.5781C79.5513 53.7306 79.3548 52.7292 79.3548 51.5739C79.3548 50.428 79.5513 49.4337 79.9442 48.5909C80.3372 47.7481 80.8841 47.0971 81.5849 46.6378C82.2856 46.1785 83.0953 45.9489 84.0138 45.9489C84.7241 45.9489 85.2852 46.0672 85.6971 46.304C86.1138 46.536 86.431 46.8011 86.6488 47.0994C86.8713 47.393 87.0442 47.6345 87.1673 47.8239H87.3093V42.4545H88.9854V57H87.3661V55.3239H87.1673C87.0442 55.5227 86.869 55.7737 86.6417 56.0767C86.4144 56.375 86.0901 56.6425 85.6687 56.8793C85.2473 57.1113 84.6862 57.2273 83.9854 57.2273ZM84.2127 55.7216C84.8851 55.7216 85.4532 55.5464 85.9173 55.196C86.3813 54.8409 86.734 54.3509 86.9755 53.7259C87.217 53.0961 87.3377 52.3693 87.3377 51.5455C87.3377 50.7311 87.2193 50.0185 86.9826 49.4077C86.7459 48.7921 86.3955 48.3139 85.9315 47.973C85.4674 47.6274 84.8945 47.4545 84.2127 47.4545C83.5025 47.4545 82.9106 47.6368 82.4371 48.0014C81.9684 48.3613 81.6156 48.8513 81.3789 49.4716C81.1469 50.0871 81.0309 50.7784 81.0309 51.5455C81.0309 52.322 81.1493 53.0275 81.386 53.6619C81.6275 54.2917 81.9826 54.7936 82.4513 55.1676C82.9248 55.5369 83.512 55.7216 84.2127 55.7216ZM98.538 49.983V51.5455H92.1744V49.983H98.538ZM104.697 57.2557C104.006 57.2557 103.379 57.1255 102.815 56.8651C102.252 56.5999 101.804 56.2188 101.473 55.7216C101.142 55.2197 100.976 54.6136 100.976 53.9034C100.976 53.2784 101.099 52.7718 101.345 52.3835C101.591 51.9905 101.92 51.6828 102.332 51.4602C102.744 51.2377 103.199 51.072 103.696 50.9631C104.198 50.8494 104.702 50.7595 105.209 50.6932C105.872 50.608 106.409 50.544 106.821 50.5014C107.238 50.4541 107.541 50.3759 107.73 50.267C107.924 50.1581 108.021 49.9687 108.021 49.6989V49.642C108.021 48.9413 107.83 48.3968 107.446 48.0085C107.067 47.6203 106.492 47.4261 105.72 47.4261C104.92 47.4261 104.293 47.6013 103.838 47.9517C103.384 48.3021 103.064 48.6761 102.879 49.0739L101.288 48.5057C101.572 47.8428 101.951 47.3267 102.425 46.9574C102.903 46.5833 103.424 46.3229 103.987 46.1761C104.555 46.0246 105.114 45.9489 105.663 45.9489C106.014 45.9489 106.416 45.9915 106.871 46.0767C107.33 46.1572 107.773 46.3253 108.199 46.581C108.63 46.8366 108.987 47.2225 109.271 47.7386C109.555 48.2547 109.697 48.946 109.697 49.8125V57H108.021V55.5227H107.936C107.822 55.7595 107.633 56.0128 107.368 56.2827C107.103 56.5526 106.75 56.7822 106.31 56.9716C105.869 57.161 105.332 57.2557 104.697 57.2557ZM104.953 55.75C105.616 55.75 106.175 55.6198 106.629 55.3594C107.089 55.099 107.434 54.7628 107.666 54.3509C107.903 53.9389 108.021 53.5057 108.021 53.0511V51.517C107.95 51.6023 107.794 51.6804 107.553 51.7514C107.316 51.8177 107.041 51.8769 106.729 51.929C106.421 51.9763 106.12 52.0189 105.827 52.0568C105.538 52.09 105.304 52.1184 105.124 52.142C104.688 52.1989 104.281 52.2912 103.902 52.419C103.528 52.5421 103.225 52.7292 102.993 52.9801C102.766 53.2263 102.652 53.5625 102.652 53.9886C102.652 54.571 102.867 55.0114 103.298 55.3097C103.734 55.6032 104.286 55.75 104.953 55.75ZM119.007 49.983V51.5455H112.643V49.983H119.007ZM122.183 57V42.4545H127.268C128.282 42.4545 129.117 42.6297 129.776 42.9801C130.434 43.3258 130.924 43.7921 131.246 44.3793C131.568 44.9616 131.729 45.608 131.729 46.3182C131.729 46.9432 131.617 47.4593 131.395 47.8665C131.177 48.2737 130.888 48.5956 130.528 48.8324C130.173 49.0691 129.787 49.2443 129.371 49.358V49.5C129.816 49.5284 130.263 49.6847 130.713 49.9688C131.163 50.2528 131.539 50.66 131.842 51.1903C132.145 51.7206 132.297 52.3693 132.297 53.1364C132.297 53.8655 132.131 54.5213 131.8 55.1037C131.468 55.6861 130.945 56.1477 130.23 56.4886C129.515 56.8295 128.585 57 127.439 57H122.183ZM123.945 55.4375H127.439C128.589 55.4375 129.406 55.215 129.889 54.7699C130.377 54.3201 130.621 53.7756 130.621 53.1364C130.621 52.6439 130.495 52.1894 130.244 51.7727C129.993 51.3513 129.636 51.0152 129.172 50.7642C128.708 50.5085 128.159 50.3807 127.524 50.3807H123.945V55.4375ZM123.945 48.8466H127.212C127.742 48.8466 128.22 48.7424 128.646 48.5341C129.077 48.3258 129.418 48.0322 129.669 47.6534C129.925 47.2746 130.053 46.8295 130.053 46.3182C130.053 45.679 129.83 45.1368 129.385 44.6918C128.94 44.242 128.234 44.017 127.268 44.017H123.945V48.8466ZM138.174 57.2557C137.483 57.2557 136.855 57.1255 136.292 56.8651C135.728 56.5999 135.281 56.2188 134.95 55.7216C134.618 55.2197 134.452 54.6136 134.452 53.9034C134.452 53.2784 134.576 52.7718 134.822 52.3835C135.068 51.9905 135.397 51.6828 135.809 51.4602C136.221 51.2377 136.675 51.072 137.173 50.9631C137.674 50.8494 138.179 50.7595 138.685 50.6932C139.348 50.608 139.886 50.544 140.298 50.5014C140.714 50.4541 141.017 50.3759 141.207 50.267C141.401 50.1581 141.498 49.9687 141.498 49.6989V49.642C141.498 48.9413 141.306 48.3968 140.923 48.0085C140.544 47.6203 139.969 47.4261 139.197 47.4261C138.397 47.4261 137.769 47.6013 137.315 47.9517C136.86 48.3021 136.54 48.6761 136.356 49.0739L134.765 48.5057C135.049 47.8428 135.428 47.3267 135.901 46.9574C136.379 46.5833 136.9 46.3229 137.464 46.1761C138.032 46.0246 138.591 45.9489 139.14 45.9489C139.49 45.9489 139.893 45.9915 140.347 46.0767C140.807 46.1572 141.249 46.3253 141.675 46.581C142.106 46.8366 142.464 47.2225 142.748 47.7386C143.032 48.2547 143.174 48.946 143.174 49.8125V57H141.498V55.5227H141.413C141.299 55.7595 141.11 56.0128 140.844 56.2827C140.579 56.5526 140.227 56.7822 139.786 56.9716C139.346 57.161 138.808 57.2557 138.174 57.2557ZM138.43 55.75C139.093 55.75 139.651 55.6198 140.106 55.3594C140.565 55.099 140.911 54.7628 141.143 54.3509C141.379 53.9389 141.498 53.5057 141.498 53.0511V51.517C141.427 51.6023 141.271 51.6804 141.029 51.7514C140.792 51.8177 140.518 51.8769 140.205 51.929C139.897 51.9763 139.597 52.0189 139.303 52.0568C139.014 52.09 138.78 52.1184 138.6 52.142C138.165 52.1989 137.757 52.2912 137.379 52.419C137.004 52.5421 136.701 52.7292 136.469 52.9801C136.242 53.2263 136.129 53.5625 136.129 53.9886C136.129 54.571 136.344 55.0114 136.775 55.3097C137.21 55.6032 137.762 55.75 138.43 55.75ZM153.961 48.5341L152.455 48.9602C152.36 48.7093 152.221 48.4654 152.036 48.2287C151.856 47.9872 151.61 47.7884 151.297 47.6321C150.985 47.4759 150.585 47.3977 150.097 47.3977C149.429 47.3977 148.873 47.5516 148.428 47.8594C147.988 48.1624 147.767 48.5483 147.767 49.017C147.767 49.4337 147.919 49.7628 148.222 50.0043C148.525 50.2457 148.998 50.447 149.642 50.608L151.262 51.0057C152.237 51.2424 152.964 51.6046 153.442 52.0923C153.92 52.5753 154.159 53.1979 154.159 53.9602C154.159 54.5852 153.98 55.1439 153.62 55.6364C153.265 56.1288 152.767 56.517 152.128 56.8011C151.489 57.0852 150.746 57.2273 149.898 57.2273C148.785 57.2273 147.864 56.9858 147.135 56.5028C146.406 56.0199 145.944 55.3144 145.75 54.3864L147.341 53.9886C147.493 54.5758 147.779 55.0161 148.201 55.3097C148.627 55.6032 149.183 55.75 149.87 55.75C150.651 55.75 151.271 55.5843 151.73 55.2528C152.194 54.9167 152.426 54.5142 152.426 54.0455C152.426 53.6667 152.294 53.3494 152.029 53.0938C151.764 52.8333 151.356 52.6392 150.807 52.5114L148.989 52.0852C147.99 51.8485 147.256 51.4815 146.787 50.9844C146.323 50.4825 146.091 49.8551 146.091 49.1023C146.091 48.4867 146.264 47.9422 146.61 47.4688C146.96 46.9953 147.436 46.6236 148.037 46.3537C148.643 46.0838 149.33 45.9489 150.097 45.9489C151.176 45.9489 152.024 46.1856 152.64 46.6591C153.26 47.1326 153.7 47.7576 153.961 48.5341ZM161.256 57.2273C160.205 57.2273 159.299 56.9953 158.536 56.5312C157.779 56.0625 157.194 55.4091 156.782 54.571C156.375 53.7282 156.171 52.7481 156.171 51.6307C156.171 50.5133 156.375 49.5284 156.782 48.6761C157.194 47.8191 157.767 47.1515 158.501 46.6733C159.239 46.1903 160.101 45.9489 161.086 45.9489C161.654 45.9489 162.215 46.0436 162.769 46.233C163.323 46.4223 163.827 46.7301 164.282 47.1562C164.737 47.5777 165.099 48.1364 165.369 48.8324C165.638 49.5284 165.773 50.3854 165.773 51.4034V52.1136H157.364V50.6648H164.069C164.069 50.0492 163.946 49.5 163.7 49.017C163.458 48.5341 163.112 48.1529 162.663 47.8736C162.218 47.5942 161.692 47.4545 161.086 47.4545C160.418 47.4545 159.841 47.6203 159.353 47.9517C158.87 48.2784 158.498 48.7045 158.238 49.2301C157.978 49.7557 157.847 50.3191 157.847 50.9205V51.8864C157.847 52.7102 157.989 53.4086 158.273 53.9815C158.562 54.5497 158.962 54.983 159.474 55.2812C159.985 55.5748 160.579 55.7216 161.256 55.7216C161.697 55.7216 162.094 55.66 162.45 55.5369C162.809 55.4091 163.12 55.2197 163.38 54.9688C163.64 54.7131 163.842 54.3958 163.984 54.017L165.603 54.4716C165.433 55.0208 165.146 55.5038 164.744 55.9205C164.341 56.3324 163.844 56.6544 163.252 56.8864C162.66 57.1136 161.995 57.2273 161.256 57.2273Z" fill="#231F20"/>
<ellipse cx="217" cy="33.5" rx="20" ry="7.5" fill="white"/>
<line x1="197.5" y1="33" x2="197.5" y2="63" stroke="white"/>
<line x1="236.5" y1="33" x2="236.5" y2="63" stroke="white"/>
<path d="M197.5 63C197.5 65 199.248 69 217 69C234.752 69 236.5 65 236.5 63" stroke="white"/>
<path d="M197.5 43C197.5 45 198.748 49 216.5 49C234.252 49 236.5 45 236.5 43" stroke="white"/>
<path d="M197.5 53C197.5 55 198.748 59 216.5 59C234.252 59 236.5 55 236.5 53" stroke="white"/>
</svg>
